<?xml version="1.0" encoding="utf-8"?>
<!-- Generator: Adobe Illustrator 24.1.1, SVG Export Plug-In . SVG Version: 6.00 Build 0)  -->
<svg version="1.1" id="Layer_1" xmlns="http://www.w3.org/2000/svg" xmlns:xlink="http://www.w3.org/1999/xlink" x="0px" y="0px"
	 viewBox="0 0 512 512" style="enable-background:new 0 0 512 512;" xml:space="preserve">
<g>
	
		<rect x="53.8" y="201.8" style="fill:#434D59;stroke:#37474F;stroke-width:7;stroke-miterlimit:10;" width="402.9" height="152.6"/>
	<path style="fill:#A6AEC4;" d="M457.5,353.8v28.5c0,10.4-8.4,18.8-18.8,18.8H73.3c-10.4,0-18.8-8.4-18.8-18.8v-28.5H457.5z"/>
	<path style="fill:#97A1B7;" d="M457.5,383.4c0,10.4-8.4,18.8-18.8,18.8H73.3c-10.4,0-18.8-8.4-18.8-18.8"/>
	<path style="fill:none;stroke:#37474F;stroke-width:7;stroke-miterlimit:10;" d="M456.8,354.4v28.5c0,10.4-8.4,18.8-18.8,18.8H72.6
		c-10.4,0-18.8-8.4-18.8-18.8v-28.5H456.8z"/>
	<path style="fill:#A6AEC4;" d="M456.8,153.5l0,47.8l-402.9-0.1l0-47.8c0-10.4,8.4-18.8,18.8-18.8l365.3,0.1
		C448.3,134.7,456.8,143.1,456.8,153.5z"/>
	<path style="fill:#97A1B7;" d="M458,184.1l0,16.1l-402.9-0.1l0-16.1"/>
	<path style="fill:none;stroke:#37474F;stroke-width:7;stroke-miterlimit:10;" d="M456.9,153.5l0,47.8L54,201.2l0-47.8
		c0-10.4,8.4-18.8,18.8-18.8l365.3,0.1C448.5,134.7,456.9,143.1,456.9,153.5z"/>
	<circle style="fill:#A6AEC4;stroke:#37474F;stroke-width:7;stroke-miterlimit:10;" cx="289.9" cy="268.4" r="78.4"/>
	<circle style="fill:#A6AEC4;stroke:#37474F;stroke-width:7;stroke-miterlimit:10;" cx="290.4" cy="267.9" r="31.2"/>
	<circle style="fill:none;stroke:#37474F;stroke-width:8;stroke-miterlimit:10;" cx="290.4" cy="267.9" r="83.8"/>
	<circle style="fill:none;stroke:#37474F;stroke-width:8;stroke-miterlimit:10;" cx="290.4" cy="267.9" r="83.8"/>
	<path style="fill:#FFCA28;stroke:#37474F;stroke-width:7;stroke-miterlimit:10;" d="M420.4,178.7h-22.6c-5.9,0-10.7-4.8-10.7-10.7
		v0c0-5.9,4.8-10.7,10.7-10.7h22.6c5.9,0,10.7,4.8,10.7,10.7v0C431.1,173.9,426.3,178.7,420.4,178.7z"/>
	<path style="fill:#37474F;" d="M126.5,174.4h-29c-3.3,0-5.9-2.6-5.9-5.9v0c0-3.3,2.6-5.9,5.9-5.9h29c3.3,0,5.9,2.6,5.9,5.9v0
		C132.4,171.7,129.8,174.4,126.5,174.4z"/>
	<path style="fill:#37474F;" d="M178.1,174.4h-19.3c-3.3,0-5.9-2.6-5.9-5.9v0c0-3.3,2.6-5.9,5.9-5.9h19.3c3.3,0,5.9,2.6,5.9,5.9v0
		C184,171.7,181.4,174.4,178.1,174.4z"/>
	<circle style="fill:#EF5350;stroke:#37474F;stroke-width:7;stroke-miterlimit:10;" cx="107.7" cy="308.7" r="19.3"/>
	<path style="opacity:0.8;fill:#EA6C6C;" d="M122.8,310.5c0,7.7-6.6,14-14.8,14c-6.8,0-12.6-4.4-14.3-10.4
		c7.1,0.6,16.8-0.4,28.9-5.4C122.7,309.3,122.8,309.9,122.8,310.5z"/>
	<circle style="fill:#E1EAFF;stroke:#37474F;stroke-width:8;stroke-miterlimit:10;" cx="175.4" cy="267.9" r="19.3"/>
	<g>
		<path style="fill:#64B5F6;" d="M132.4,134.1H83v-14.7c0-5.5,4.5-10,10-10h29.5c5.5,0,10,4.5,10,10V134.1z"/>
		<path style="fill:#66C1FF;" d="M83,119.9c0-5.5,4.5-10,10-10h29.5c5.5,0,10,4.5,10,10"/>
		<path style="fill:none;stroke:#37474F;stroke-width:8;stroke-miterlimit:10;" d="M132.4,133.5H83v-14.7c0-5.5,4.5-10,10-10h29.5
			c5.5,0,10,4.5,10,10V133.5z"/>
	</g>
	<g>
		<path style="fill:#64B5F6;" d="M196.9,134.1h-49.4v-14.7c0-5.5,4.5-10,10-10h29.5c5.5,0,10,4.5,10,10V134.1z"/>
		<path style="fill:#66C1FF;" d="M147.5,119.9c0-5.5,4.5-10,10-10h29.5c5.5,0,10,4.5,10,10"/>
		<path style="fill:none;stroke:#37474F;stroke-width:8;stroke-miterlimit:10;" d="M196.9,133.5h-49.4v-14.7c0-5.5,4.5-10,10-10
			h29.5c5.5,0,10,4.5,10,10V133.5z"/>
	</g>
	<path style="fill:#DAD8DB;stroke:#37474F;stroke-width:7;stroke-miterlimit:10;" d="M290.4,157.2c-61.1,0-110.7,49.5-110.7,110.7
		s49.5,110.7,110.7,110.7S401.1,329,401.1,267.9S351.5,157.2,290.4,157.2z M290.4,351.7c-46.3,0-83.8-37.5-83.8-83.8
		c0-46.3,37.5-83.8,83.8-83.8s83.8,37.5,83.8,83.8C374.2,314.1,336.7,351.7,290.4,351.7z"/>
	<path style="fill:#FFD18D;" d="M391.4,167.9c0,0,7.3,5.4,35.4,0c0,0,1,6.4-6.2,7.5C413.3,176.5,389.3,179.8,391.4,167.9z"/>
	<circle style="fill:#D7E3FF;" cx="290.4" cy="267.9" r="27.9"/>
	<path style="fill:#A6AEC4;" d="M261.9,268.4c0,0,22.9,26.3,53.9,11c0,0-10,24.5-37.3,13.7C278.5,293.1,264.1,287.7,261.9,268.4z"/>
</g>
</svg>
