<?xml version="1.0" encoding="utf-8"?>
<!-- Generator: Adobe Illustrator 24.1.1, SVG Export Plug-In . SVG Version: 6.00 Build 0)  -->
<svg version="1.1" id="Layer_1" xmlns="http://www.w3.org/2000/svg" xmlns:xlink="http://www.w3.org/1999/xlink" x="0px" y="0px"
	 viewBox="0 0 512 512" style="enable-background:new 0 0 512 512;" xml:space="preserve">
<path style="fill:#EF5350;stroke:#37474F;stroke-width:7;stroke-miterlimit:10;" d="M464,136.6v195c0,8.9-7.2,16.1-16.1,16.1H121
	c-8.9,0-16.1-7.2-16.1-16.1v-255c0-7.1,5.8-12.9,12.9-12.9h66.8c5,0,9.6,2.9,11.7,7.4l18.3,39c2.9,6.3,9.3,10.3,16.2,10.3h217.1
	C456.8,120.5,464,127.7,464,136.6z"/>
<path style="fill:#FFCA28;" d="M319.7,179h-27.4c-4.6,0-8.3-3.7-8.3-8.3v-27.4c0-4.6,3.7-8.3,8.3-8.3h27.4c4.6,0,8.3,3.7,8.3,8.3
	v27.4C328,175.3,324.3,179,319.7,179z"/>
<path style="fill:#FFCA28;" d="M373.7,179h-27.4c-4.6,0-8.3-3.7-8.3-8.3v-27.4c0-4.6,3.7-8.3,8.3-8.3h27.4c4.6,0,8.3,3.7,8.3,8.3
	v27.4C382,175.3,378.3,179,373.7,179z"/>
<path style="fill:#FFCA28;" d="M427.7,179h-27.4c-4.6,0-8.3-3.7-8.3-8.3v-27.4c0-4.6,3.7-8.3,8.3-8.3h27.4c4.6,0,8.3,3.7,8.3,8.3
	v27.4C436,175.3,432.3,179,427.7,179z"/>
<path style="fill:#64B5F6;stroke:#37474F;stroke-width:7;stroke-miterlimit:10;" d="M427.1,186.4v195c0,8.9-7.2,16.1-16.1,16.1H84.1
	c-8.9,0-16.1-7.2-16.1-16.1v-255c0-7.1,5.8-12.9,12.9-12.9h66.8c5,0,9.6,2.9,11.7,7.4l18.3,39c2.9,6.3,9.3,10.3,16.2,10.3H411
	C419.9,170.3,427.1,177.5,427.1,186.4z"/>
<g>
	<path style="fill:#FFFFFF;" d="M283.7,233h-27.4c-4.6,0-8.3-3.7-8.3-8.3v-27.4c0-4.6,3.7-8.3,8.3-8.3h27.4c4.6,0,8.3,3.7,8.3,8.3
		v27.4C292,229.3,288.3,233,283.7,233z"/>
	<path style="fill:#FFFFFF;" d="M337.7,233h-27.4c-4.6,0-8.3-3.7-8.3-8.3v-27.4c0-4.6,3.7-8.3,8.3-8.3h27.4c4.6,0,8.3,3.7,8.3,8.3
		v27.4C346,229.3,342.3,233,337.7,233z"/>
	<path style="fill:#FFFFFF;" d="M391.7,233h-27.4c-4.6,0-8.3-3.7-8.3-8.3v-27.4c0-4.6,3.7-8.3,8.3-8.3h27.4c4.6,0,8.3,3.7,8.3,8.3
		v27.4C400,229.3,396.3,233,391.7,233z"/>
</g>
<g>
	<path style="fill:#FFCA28;stroke:#37474F;stroke-width:8;stroke-miterlimit:10;" d="M393.5,237.7v195c0,8.9-7.2,16.1-16.1,16.1
		H50.5c-8.9,0-16.1-7.2-16.1-16.1v-255c0-7.1,5.8-12.9,12.9-12.9h66.8c5,0,9.6,2.9,11.7,7.4l18.3,39c2.9,6.3,9.3,10.3,16.2,10.3
		h217.1C386.3,221.6,393.5,228.8,393.5,237.7z"/>
	<g>
		<path style="fill:#EF5350;" d="M253.7,288h-27.4c-4.6,0-8.3-3.7-8.3-8.3v-27.4c0-4.6,3.7-8.3,8.3-8.3h27.4c4.6,0,8.3,3.7,8.3,8.3
			v27.4C262,284.3,258.3,288,253.7,288z"/>
		<path style="fill:#EF5350;" d="M307.7,288h-27.4c-4.6,0-8.3-3.7-8.3-8.3v-27.4c0-4.6,3.7-8.3,8.3-8.3h27.4c4.6,0,8.3,3.7,8.3,8.3
			v27.4C316,284.3,312.3,288,307.7,288z"/>
		<path style="fill:#EF5350;" d="M361.7,288h-27.4c-4.6,0-8.3-3.7-8.3-8.3v-27.4c0-4.6,3.7-8.3,8.3-8.3h27.4c4.6,0,8.3,3.7,8.3,8.3
			v27.4C370,284.3,366.3,288,361.7,288z"/>
	</g>
</g>
</svg>
