<?xml version="1.0" encoding="utf-8"?>
<!-- Generator: Adobe Illustrator 24.1.1, SVG Export Plug-In . SVG Version: 6.00 Build 0)  -->
<svg version="1.1" id="Layer_1" xmlns="http://www.w3.org/2000/svg" xmlns:xlink="http://www.w3.org/1999/xlink" x="0px" y="0px"
	 viewBox="0 0 512 512" style="enable-background:new 0 0 512 512;" xml:space="preserve">
<path style="fill:#64B5F6;stroke:#37474F;stroke-width:7;stroke-miterlimit:10;" d="M462.9,396.7H128.1c-13.6,0-24.6-11-24.6-24.6
	v-191c0-13.6,11-24.6,24.6-24.6h334.9c13.6,0,24.6,11,24.6,24.6v191C487.5,385.7,476.5,396.7,462.9,396.7z"/>
<path style="fill:#64B5F6;" d="M434.5,160.1v191c0,13.6-11,24.6-24.6,24.6H75.1c-13.6,0-24.6-11-24.6-24.6v-191
	c0-13.6,11-24.6,24.6-24.6h334.9C423.5,135.6,434.5,146.6,434.5,160.1z"/>
<path style="opacity:0.3;fill:#00838F;" d="M180.8,301.8c0,0,14.5-46.1,96.1-47.7C276.9,254.1,193.1,286.2,180.8,301.8z"/>
<path style="fill:#A4C400;stroke:#37474F;stroke-width:7;stroke-miterlimit:10;" d="M109.7,375.7c0,0,70.8-140.2,324.8-147.7v128.6
	c0,0-1.3,19.3-31.6,19.1S109.7,375.7,109.7,375.7z"/>
<path style="fill:#FFCA28;" d="M217,317c0,22-7.3,42.3-19.5,58.7H75.1c-13.6,0-24.6-11-24.6-24.6V246.9C68.2,229.6,92.3,219,119,219
	C173.1,219,217,262.9,217,317z"/>
<circle style="fill:#EF5350;" cx="256.3" cy="197.8" r="27"/>
<path style="fill:#FF7D7D;" d="M247,178c0,0,29,3,25,35c0,0,3.9-2.2,6.4-11.2c3.5-12.3-3.9-25.3-16.4-27.8
	C257.1,173.1,251.9,173.8,247,178z"/>
<circle style="fill:none;stroke:#37474F;stroke-width:10;stroke-miterlimit:10;" cx="256.3" cy="197.8" r="27"/>
<path style="opacity:0.7;fill:#EDAA03;" d="M97.8,221.3c0,0,75-19.4,113.1,61.7c0,0,17.1,47-12.9,93C198,376,237.7,233.6,97.8,221.3
	z"/>
<path style="fill:none;stroke:#37474F;stroke-width:7;stroke-miterlimit:10;" d="M217,316.8c0,22-7.3,42.3-19.5,58.7H75.1
	c-13.6,0-24.6-11-24.6-24.6V246.7c17.7-17.3,41.8-27.9,68.5-27.9C173.1,218.8,217,262.7,217,316.8z"/>
<path style="opacity:0.3;fill:#284D66;" d="M431.5,160.1v191c0,13.6-11,24.6-24.6,24.6h-14c13.6,0,24.6-11,24.6-24.6v-191
	c0-13.6-11-24.6-24.6-24.6h14C420.5,135.6,431.5,146.6,431.5,160.1z"/>
<path style="fill:none;stroke:#37474F;stroke-width:7;stroke-miterlimit:10;" d="M434.5,160.1v191c0,13.6-11,24.6-24.6,24.6H75.1
	c-13.6,0-24.6-11-24.6-24.6v-191c0-13.6,11-24.6,24.6-24.6h334.9C423.5,135.6,434.5,146.6,434.5,160.1z"/>
</svg>
